inDegrees=yes
name=ik_S46_A10_T02
DataType=double
version=3
OpenSimVersion=4.3-2021-08-27-4bc7ad9
endheader
time	pelvis_tilt	pelvis_list	pelvis_rotation	pelvis_tx	pelvis_ty	pelvis_tz	hip_flexion_r	hip_adduction_r	hip_rotation_r	knee_angle_r	knee_angle_r_beta	ankle_angle_r	subtalar_angle_r	mtp_angle_r	hip_flexion_l	hip_adduction_l	hip_rotation_l	knee_angle_l	knee_angle_l_beta	ankle_angle_l	subtalar_angle_l	mtp_angle_l	lumbar_extension	lumbar_bending	lumbar_rotation	arm_flex_r	arm_add_r	arm_rot_r	elbow_flex_r	pro_sup_r	wrist_flex_r	wrist_dev_r	arm_flex_l	arm_add_l	arm_rot_l	elbow_flex_l	pro_sup_l	wrist_flex_l	wrist_dev_l
4.979999999999982	-0.7509024569716588	-3.698249679185406	37.02514151697016	0	0.9399999999999999	0	38.17821037311908	-9.878187323642466	-9.611622516212616	45.30930522419803	0.7907965579533233	0	0	0	38.17821037311908	-9.878187323642466	-9.611622516212616	45.30930522419803	0.7907965579533233	0	0	0	-2.039298978892301	-2.298369078433108	4.824886475628256	95.12440672201457	-8.261375252471728	40.36959057327402	32.99898061627258	4.575999959742343	0	0	101.1953406782642	8.625852048467824	16.66098811711412	26.75139699601188	21.78886149223762	0	0
4.999999999999981	-0.8217979678433116	-3.792434490187791	37.10827917473812	0	0.9399999999999999	0	38.18127531791376	-9.878377081450351	-9.612010519683279	45.31225876782932	0.7908481070142904	0	0	0	38.18127531791376	-9.878377081450351	-9.612010519683279	45.31225876782932	0.7908481070142904	0	0	0	-2.153655359102779	-2.329874073215538	4.816170925259797	94.9957303504184	-8.034490244729401	40.42265851776966	33.52598860561174	4.775359724254314	0	0	100.9908691325187	8.905475704818354	16.66886851480093	26.25319558103165	22.40137058200376	0	0
5.019999999999981	-0.8736447165466058	-3.864609948752197	37.21068866199298	0	0.9399999999999999	0	38.18462089523279	-9.878583841474917	-9.612433644984238	45.3154845511487	0.7909044075541696	0	0	0	38.18462089523279	-9.878583841474917	-9.612433644984238	45.3154845511487	0.7909044075541696	0	0	0	-2.237355723194159	-2.35830477533047	4.84729556567545	94.44730473288237	-7.973632797070035	40.35815354582383	34.52874628238372	5.134295716410755	0	0	99.85042987254992	9.322653834177263	16.7461179647244	26.15587029035291	23.4801256006718	0	0
5.03999999999998	-0.8958402239052119	-3.916453143841486	37.39725035378312	0	0.9399999999999999	0	38.18794874116823	-9.878789207044017	-9.612854208065832	45.31869451435491	0.7909604319809858	0	0	0	38.18794874116823	-9.878789207044017	-9.612854208065832	45.31869451435491	0.7909604319809858	0	0	0	-2.287827895361126	-2.37949867109429	4.876791029861423	93.31970754218968	-8.071906753973773	40.14049235681827	36.30201201714284	5.698530706830427	0	0	99.03482497305748	9.759710021890356	16.7811636820209	25.29183470090002	24.95315413556343	0	0
5.05999999999998	-0.9006793231767201	-3.923867571522903	37.60297510685914	0	0.9399999999999999	0	38.2849071614044	-9.882945308528601	-9.622639775992853	45.43872996241357	0.793055445768716	0	0	0	38.2849071614044	-9.882945308528601	-9.622639775992853	45.43872996241357	0.793055445768716	0	0	0	-2.302921368870497	-2.390506225110048	4.899851775593749	91.68356642747547	-8.384748250129842	39.71169632679393	38.04058356954801	6.508985733542231	0	0	97.64400933112468	10.54095027005449	17.33337921693822	22.53105063881446	29.03198947349156	0	0
5.07999999999998	-0.8937359608644578	-3.925373887748151	37.72558524291855	0	0.9399999999999999	0	38.28942142754276	-9.883217064535264	-9.623202473547897	45.44310471735311	0.7931317996463789	0	0	0	38.28942142754276	-9.883217064535264	-9.623202473547897	45.44310471735311	0.7931317996463789	0	0	0	-2.301764172414439	-2.385747749963776	4.879747399478416	89.55176029247332	-8.652459464348878	38.96962535934249	40.71040561098642	9.225269380271092	0	0	97.46561454762085	10.92834527324642	17.39431832605613	20.63275861755644	32.33577860342191	0	0
5.099999999999979	-0.9037770737410029	-3.884008766035538	37.63179971581989	0	0.9399999999999999	0	38.43722001655873	-9.889211334139379	-9.637654248969975	45.62995849372793	0.7963930132639047	0	0	0	38.43722001655873	-9.889211334139379	-9.637654248969975	45.62995849372793	0.7963930132639047	0	0	0	-2.271492939904648	-2.387803311853293	5.116180236504414	87.21589387779782	-9.169718559361735	37.8001801267893	40.57870131239962	15.82250030780838	0	0	95.48640448160302	11.30375942399246	18.50843196971531	18.29740880110197	37.24770628404465	0	0
5.119999999999979	-0.9162827207399804	-3.804288449776145	37.37429318187323	0	0.9399999999999999	0	38.44903795058089	-9.889899003364048	-9.639101032226199	45.64141682076815	0.7965929987975269	0	0	0	38.44903795058089	-9.889899003364048	-9.639101032226199	45.64141682076815	0.7965929987975269	0	0	0	-2.217962459911896	-2.329362283021375	5.368754078583646	85.03136954752689	-9.678625370992304	36.32398480037606	41.94164409617632	20.57950496569688	0	0	95.345993962943	11.38700572482018	18.38747387523326	17.42302110479122	38.30699736459828	0	0
5.139999999999978	-0.977958159299015	-3.559705814474794	37.35355590695456	0	0.9399999999999999	0	38.54306386459983	-9.893629426895975	-9.648186450535475	45.76003779312266	0.7986633253270302	0	0	0	38.54306386459983	-9.893629426895975	-9.648186450535475	45.76003779312266	0.7986633253270302	0	0	0	-2.135537584026989	-2.095112254602595	5.143127072233319	84.78027023844987	-9.373530238718004	36.90310849162411	41.99706126565101	19.50457076987827	0	0	89.98938508923545	10.16647302207612	19.92309624556689	20.98612565293954	36.87132678354399	0	0
